<svg width="512" height="512" viewBox="0 0 512 512" fill="none" xmlns="http://www.w3.org/2000/svg">
<g clip-path="url(#clip0_183_2)">
<path d="M378.54 0H133.46C59.7519 0 0 59.7519 0 133.46V378.54C0 452.248 59.7519 512 133.46 512H378.54C452.248 512 512 452.248 512 378.54V133.46C512 59.7519 452.248 0 378.54 0Z" fill="#05B75E"/>
<path d="M198.73 297.436C198.73 297.436 206.484 304.011 214.533 311.962C222.679 319.911 231.904 328.156 235.143 330.315C238.382 332.475 243.682 335.223 246.921 336.597C250.258 337.971 255.558 339.247 259.19 339.444C259.546 339.463 259.92 339.475 260.306 339.485C251.451 346.76 240.343 353.23 240.343 353.23C240.343 353.23 258.089 362.313 267.218 370.96C275.16 378.484 283.785 392.506 285.891 396.022C285.825 396.039 285.758 396.059 285.69 396.076V421.001H229.745V395.093L221.696 392.345C217.181 390.775 210.017 387.83 205.699 385.572C201.38 383.414 195.197 379.684 191.958 377.426C188.719 375.072 183.419 370.851 180.277 367.906C177.038 365.06 170.07 357.6 155.152 340.131L198.73 297.436Z" fill="white" fill-opacity="0.7"/>
<path d="M228.437 115.682C226.031 120.176 218.703 133.353 211.666 140.777C203.089 149.827 186 159.768 186 159.768C186 159.768 203.596 168.78 212.646 177.357C221.672 185.912 231.583 202.932 231.636 203.023C231.636 203.023 231.678 202.944 231.755 202.794C232.776 204.391 235.474 207.564 237.794 209.691C240.149 211.947 245.155 215.873 248.884 218.425C252.712 220.879 267.729 228.829 282.255 236.093C296.879 243.257 311.405 251.011 314.645 253.169C317.883 255.329 323.477 259.55 327.207 262.495C330.838 265.537 336.531 271.425 339.77 275.548C343.107 279.769 347.328 286.247 349.193 290.075C351.156 293.903 353.511 300.282 354.492 304.306C355.67 308.821 356.357 315.102 356.357 320.5C356.357 326.192 355.67 332.082 354.394 337.185C353.217 341.504 351.057 347.687 349.486 350.926C347.916 354.164 344.285 359.858 341.439 363.588C338.592 367.317 333.194 373.01 329.366 376.15C325.637 379.291 318.079 384.101 312.682 386.752C307.455 389.412 299.559 392.437 286.947 395.744C289.069 391.747 296.745 377.732 304.106 369.962C312.735 360.853 329.91 350.846 329.982 350.805C329.95 350.788 312.228 341.714 303.108 333.074C293.98 324.427 283.949 307.198 283.949 307.198C283.949 307.198 283.916 307.259 283.854 307.378C282.488 305.425 280.694 303.235 279.016 301.557C276.463 299.006 270.182 294.098 265.079 290.663C259.975 287.227 245.155 279.278 232.199 272.997C219.244 266.714 204.815 258.962 200.103 255.919C195.294 252.876 188.228 247.085 184.204 243.159C180.277 239.331 174.881 232.755 172.23 228.731C169.678 224.707 166.537 218.916 165.359 215.972C164.182 213.027 162.414 206.844 161.433 202.231C160.256 196.146 159.961 191.533 160.354 185.055C160.648 180.246 161.924 173.179 163.102 169.351C164.28 165.523 166.046 160.713 167.126 158.554C168.205 156.395 171.347 151.586 174.193 147.856C176.942 144.225 182.732 138.336 187.051 134.803C191.566 131.171 199.123 126.46 204.717 123.712C209.913 121.162 217.383 118.341 228.437 115.682Z" fill="white" fill-opacity="0.7"/>
<path d="M286.18 115.958L295.014 118.903C299.922 120.572 306.694 123.417 310.227 125.381C313.76 127.344 319.06 130.681 322.004 132.84C324.949 134.999 330.446 139.71 334.176 143.244C337.807 146.777 344.481 153.647 356.848 166.996L311.699 211.064C311.661 211.033 302.944 203.782 293.542 194.772C280.194 182.111 274.991 177.793 269.987 175.436C264.151 172.519 262.941 172.299 253.56 172.295C262.532 164.578 274.892 157.385 274.892 157.385C274.892 157.385 257.296 148.373 248.246 139.797C240.384 132.345 231.85 118.47 229.745 114.956V90.9988H285.788L286.18 115.958Z" fill="white" fill-opacity="0.7"/>
</g>
<defs>
<clipPath id="clip0_183_2">
<rect width="512" height="512" fill="white"/>
</clipPath>
</defs>
</svg>
