<svg width="1799" height="422" viewBox="0 0 1799 422" fill="none" xmlns="http://www.w3.org/2000/svg">
<path d="M559.017 224.985V185.701H607.961C614.186 185.701 619.875 184.413 625.027 181.837C630.179 179.261 634.258 175.504 637.263 170.567C640.268 165.629 641.771 159.619 641.771 152.535C641.771 145.665 640.268 139.762 637.263 134.825C634.258 129.887 630.179 126.131 625.027 123.555C619.875 120.979 614.186 119.691 607.961 119.691H559.017V80.4068H615.367C629.75 80.4068 642.737 83.3048 654.329 89.1008C665.921 94.8968 675.044 103.269 681.699 114.217C688.568 124.95 692.003 137.723 692.003 152.535C692.003 167.347 688.568 180.227 681.699 191.175C675.044 201.908 665.921 210.28 654.329 216.291C642.737 222.087 629.75 224.985 615.367 224.985H559.017ZM520.377 307.739V80.4068H570.931V307.739H520.377Z" fill="#05B75E"/>
<path d="M776.825 310.959C762.442 310.959 749.562 307.417 738.185 300.333C727.022 293.249 718.113 283.589 711.459 271.353C705.019 259.117 701.799 245.163 701.799 229.493C701.799 213.822 705.019 199.869 711.459 187.633C718.113 175.397 727.022 165.737 738.185 158.653C749.562 151.569 762.442 148.027 776.825 148.027C787.343 148.027 796.789 150.066 805.161 154.145C813.747 158.223 820.724 163.912 826.091 171.211C831.457 178.295 834.463 186.452 835.107 195.683V263.303C834.463 272.533 831.457 280.798 826.091 288.097C820.939 295.181 814.069 300.762 805.483 304.841C796.896 308.919 787.343 310.959 776.825 310.959ZM786.807 266.523C797.325 266.523 805.805 263.088 812.245 256.219C818.685 249.135 821.905 240.226 821.905 229.493C821.905 222.194 820.402 215.754 817.397 210.173C814.606 204.591 810.527 200.298 805.161 197.293C800.009 194.073 793.998 192.463 787.129 192.463C780.259 192.463 774.141 194.073 768.775 197.293C763.623 200.298 759.437 204.591 756.217 210.173C753.211 215.754 751.709 222.194 751.709 229.493C751.709 236.577 753.211 242.909 756.217 248.491C759.222 254.072 763.408 258.473 768.775 261.693C774.141 264.913 780.152 266.523 786.807 266.523ZM819.973 307.739V265.557L827.379 227.561L819.973 189.565V151.247H868.273V307.739H819.973Z" fill="#05B75E"/>
<path d="M951.261 308.383L886.861 151.247H939.991L980.885 275.861H961.243L1003.1 151.247H1056.23L989.257 308.383H951.261ZM922.193 348.033L958.023 272.319L989.257 308.383L972.747 348.033H922.193Z" fill="#05B75E"/>
<path d="M1104.17 307.739L1050.07 151.247H1098.37L1131.86 264.913L1117.69 265.235L1154.72 151.247H1194.65L1232 265.235L1217.51 264.913L1251.32 151.247H1299.62L1245.52 307.739H1205.27L1168.89 199.547H1181.12L1144.09 307.739H1104.17Z" fill="#05B75E"/>
<path d="M1380.89 310.959C1366.51 310.959 1353.63 307.417 1342.25 300.333C1331.09 293.249 1322.18 283.589 1315.52 271.353C1309.08 259.117 1305.86 245.163 1305.86 229.493C1305.86 213.822 1309.08 199.869 1315.52 187.633C1322.18 175.397 1331.09 165.737 1342.25 158.653C1353.63 151.569 1366.51 148.027 1380.89 148.027C1391.41 148.027 1400.85 150.066 1409.23 154.145C1417.81 158.223 1424.79 163.912 1430.16 171.211C1435.52 178.295 1438.53 186.452 1439.17 195.683V263.303C1438.53 272.533 1435.52 280.798 1430.16 288.097C1425 295.181 1418.13 300.762 1409.55 304.841C1400.96 308.919 1391.41 310.959 1380.89 310.959ZM1390.87 266.523C1401.39 266.523 1409.87 263.088 1416.31 256.219C1422.75 249.135 1425.97 240.226 1425.97 229.493C1425.97 222.194 1424.47 215.754 1421.46 210.173C1418.67 204.591 1414.59 200.298 1409.23 197.293C1404.07 194.073 1398.06 192.463 1391.19 192.463C1384.32 192.463 1378.21 194.073 1372.84 197.293C1367.69 200.298 1363.5 204.591 1360.28 210.173C1357.28 215.754 1355.77 222.194 1355.77 229.493C1355.77 236.577 1357.28 242.909 1360.28 248.491C1363.29 254.072 1367.47 258.473 1372.84 261.693C1378.21 264.913 1384.22 266.523 1390.87 266.523ZM1424.04 307.739V265.557L1431.44 227.561L1424.04 189.565V151.247H1472.34V307.739H1424.04Z" fill="#05B75E"/>
<path d="M1507.03 307.739V73.9668H1556.29V307.739H1507.03Z" fill="#05B75E"/>
<path d="M1590.98 307.739V73.9668H1640.25V307.739H1590.98Z" fill="#05B75E"/>
<path d="M1731.94 311.603C1722.71 311.603 1713.58 310.422 1704.57 308.061C1695.77 305.699 1687.5 302.372 1679.77 298.079C1672.26 293.571 1665.82 288.419 1660.45 282.623L1688.47 254.287C1693.62 259.868 1699.74 264.269 1706.82 267.489C1713.91 270.494 1721.63 271.997 1730.01 271.997C1735.8 271.997 1740.2 271.138 1743.21 269.421C1746.43 267.703 1748.04 265.342 1748.04 262.337C1748.04 258.473 1746.11 255.575 1742.24 253.643C1738.59 251.496 1733.87 249.671 1728.07 248.169C1722.28 246.451 1716.16 244.627 1709.72 242.695C1703.28 240.763 1697.16 238.079 1691.37 234.645C1685.57 231.21 1680.85 226.487 1677.2 220.477C1673.55 214.251 1671.72 206.416 1671.72 196.971C1671.72 186.881 1674.3 178.187 1679.45 170.889C1684.6 163.375 1691.9 157.472 1701.35 153.179C1710.79 148.885 1721.85 146.739 1734.51 146.739C1747.82 146.739 1760.06 149.1 1771.22 153.823C1782.6 158.331 1791.83 165.093 1798.91 174.109L1770.9 202.445C1765.96 196.649 1760.38 192.57 1754.16 190.209C1748.14 187.847 1742.24 186.667 1736.45 186.667C1730.86 186.667 1726.68 187.525 1723.89 189.243C1721.1 190.745 1719.7 192.999 1719.7 196.005C1719.7 199.225 1721.53 201.801 1725.18 203.733C1728.82 205.665 1733.55 207.382 1739.34 208.885C1745.14 210.387 1751.26 212.212 1757.7 214.359C1764.14 216.505 1770.26 219.403 1776.05 223.053C1781.85 226.702 1786.57 231.639 1790.22 237.865C1793.87 243.875 1795.69 251.818 1795.69 261.693C1795.69 276.934 1789.9 289.063 1778.31 298.079C1766.93 307.095 1751.47 311.603 1731.94 311.603Z" fill="#05B75E"/>
<rect width="422" height="422" rx="110" fill="#05B75E"/>
<path d="M163.797 245.152C163.797 245.152 170.188 250.572 176.822 257.125C183.536 263.677 191.14 270.472 193.809 272.252C196.479 274.032 200.847 276.297 203.517 277.43C206.267 278.562 210.636 279.614 213.629 279.776C213.923 279.792 214.231 279.802 214.549 279.81C207.251 285.806 198.095 291.139 198.095 291.139C198.095 291.139 212.722 298.625 220.246 305.752C226.792 311.954 233.901 323.511 235.637 326.409C235.582 326.423 235.527 326.439 235.471 326.453V346.997H189.36V325.643L182.726 323.378C179.005 322.084 173.1 319.657 169.541 317.796C165.981 316.017 160.885 312.943 158.215 311.082C155.546 309.141 151.177 305.662 148.588 303.235C145.918 300.889 140.175 294.741 127.879 280.342L163.797 245.152Z" fill="white" fill-opacity="0.7"/>
<path d="M188.282 95.3474C186.299 99.0511 180.259 109.912 174.459 116.031C167.39 123.49 153.305 131.684 153.305 131.684C153.305 131.684 167.808 139.112 175.267 146.181C182.706 153.232 190.875 167.26 190.919 167.335C190.919 167.335 190.953 167.27 191.017 167.147C191.858 168.463 194.082 171.078 195.994 172.831C197.935 174.691 202.061 177.927 205.135 180.03C208.29 182.053 220.667 188.605 232.64 194.592C244.693 200.497 256.666 206.888 259.336 208.667C262.005 210.447 266.616 213.926 269.69 216.353C272.683 218.861 277.375 223.714 280.045 227.112C282.795 230.591 286.274 235.93 287.811 239.085C289.429 242.24 291.37 247.498 292.179 250.815C293.15 254.536 293.716 259.713 293.716 264.162C293.716 268.854 293.15 273.708 292.098 277.914C291.128 281.474 289.348 286.57 288.053 289.24C286.759 291.909 283.766 296.602 281.42 299.676C279.074 302.75 274.625 307.442 271.47 310.03C268.396 312.619 262.167 316.583 257.718 318.768C253.41 320.961 246.902 323.454 236.507 326.18C238.256 322.885 244.583 311.334 250.65 304.93C257.762 297.422 271.918 289.174 271.977 289.14C271.951 289.126 257.344 281.647 249.827 274.526C242.304 267.399 234.036 253.198 234.036 253.198C234.036 253.198 234.009 253.249 233.958 253.347C232.832 251.737 231.353 249.932 229.97 248.549C227.866 246.446 222.689 242.401 218.483 239.57C214.276 236.738 202.061 230.186 191.383 225.009C180.705 219.831 168.812 213.441 164.929 210.933C160.965 208.425 155.141 203.652 151.824 200.416C148.588 197.261 144.14 191.841 141.955 188.524C139.852 185.208 137.263 180.435 136.292 178.008C135.322 175.581 133.865 170.485 133.056 166.683C132.086 161.667 131.843 157.865 132.167 152.526C132.409 148.562 133.461 142.737 134.432 139.582C135.403 136.427 136.858 132.463 137.748 130.683C138.638 128.904 141.227 124.94 143.573 121.866C145.839 118.873 150.611 114.019 154.171 111.107C157.892 108.114 164.121 104.231 168.732 101.966C173.014 99.8637 179.171 97.5386 188.282 95.3474Z" fill="white" fill-opacity="0.7"/>
<path d="M235.875 95.5748L243.156 98.0021C247.201 99.3773 252.783 101.723 255.695 103.341C258.607 104.959 262.975 107.71 265.402 109.489C267.829 111.269 272.36 115.152 275.434 118.064C278.427 120.976 283.928 126.639 294.121 137.641L256.908 173.963C256.877 173.937 249.692 167.961 241.943 160.535C230.941 150.099 226.653 146.54 222.528 144.598C217.718 142.193 216.721 142.012 208.989 142.009C216.384 135.648 226.571 129.72 226.571 129.72C226.571 129.72 212.068 122.292 204.609 115.223C198.129 109.081 191.095 97.6449 189.36 94.7488V75.0029H235.552L235.875 95.5748Z" fill="white" fill-opacity="0.7"/>
</svg>
